<svg width="340" height="94" viewBox="0 0 340 94" fill="none" xmlns="http://www.w3.org/2000/svg">
<path d="M73.6411 32.8467H95.5677V40.1599H81.9563V50.0366H95.2424V57.3499H81.9563V74.1494H73.6411V32.8597V32.8467Z" fill="#717275"/>
<path d="M99.979 32.8467H107.292V39.3791H99.979V32.8467ZM99.979 43.5042H107.292V74.1364H99.979V43.5042Z" fill="#717275"/>
<path d="M114.032 43.5044H120.89C120.89 44.8447 120.89 46.133 120.838 47.5774C122.178 45.1831 124.911 42.5024 130.376 42.5545C140.37 42.6065 142.257 50.2581 142.257 55.6714V74.1366H134.944V57.5062C134.944 52.9257 133.434 49.4122 128.307 49.4122C123.115 49.4643 121.332 52.9257 121.332 57.2199V74.1236H114.019V43.4914L114.032 43.5044Z" fill="#717275"/>
<path d="M180.346 74.1364H173.371V69.7251C172.031 72.0153 169.129 75.0864 162.883 75.0864C153.449 75.0864 147.372 67.7211 147.372 58.7943C147.372 48.8655 154.464 42.5543 162.766 42.5543C168.622 42.5543 171.914 45.6773 173.033 47.4601V32.8467H180.346V74.1364ZM154.685 58.7943C154.685 63.9864 158.419 68.2286 164.054 68.2286C166.735 68.2286 169.129 67.1746 170.86 65.4439C172.59 63.7131 173.592 61.3188 173.488 58.6381C173.488 55.9575 172.434 53.6672 170.756 52.0536C169.077 50.375 166.735 49.373 164.119 49.373C158.146 49.373 154.685 53.9535 154.685 58.7422V58.7943Z" fill="#717275"/>
<path d="M187.711 32.8467H209.638V40.1599H196.027V50.0366H209.313V57.3499H196.027V74.1494H187.711V32.8597V32.8467Z" fill="#717275"/>
<path d="M212.957 58.7421C212.957 50.9343 218.708 42.6191 229.366 42.6191C240.023 42.6191 245.775 50.9343 245.775 58.7941C245.775 66.6539 240.023 75.0341 229.366 75.0341C218.708 75.0341 212.957 66.7189 212.957 58.7941V58.7421ZM220.257 58.8462C220.257 64.2074 224.33 68.1634 229.353 68.1634C234.376 68.1634 238.397 64.2074 238.397 58.7941C238.397 53.3808 234.376 49.4249 229.353 49.4249C224.33 49.4249 220.257 53.3808 220.257 58.7941V58.8462Z" fill="#717275"/>
<path d="M250.888 43.5041H257.811V47.5251C259.151 44.7924 261.663 42.6193 266.295 42.5542V49.9195H265.957C260.817 49.9195 258.201 52.3138 258.201 57.6231V74.1364H250.888V43.5041Z" fill="#717275"/>
<path d="M300.09 62.9844C298.359 69.7901 292.282 75.0863 284.357 75.0863C274.65 75.0863 267.948 67.5519 267.948 58.7942C267.948 50.0366 274.923 42.5542 284.071 42.5542C291.775 42.5542 298.294 47.408 300.09 54.8904H292.608C291.319 51.6502 288.365 49.3729 284.344 49.3729C281.664 49.3209 279.608 50.2708 277.812 51.9885C276.25 53.6672 275.3 56.1136 275.3 58.7942C275.3 64.3117 279.152 68.2285 284.344 68.2285C288.925 68.2285 291.488 65.4958 292.608 62.9844H300.09Z" fill="#717275"/>
<path d="M310.579 61.254C310.917 66.1598 315.263 68.8925 319.454 68.8405C323.019 68.8405 325.426 67.2269 326.819 64.7154H334.353C332.896 68.1248 330.723 70.6883 328.159 72.419C325.596 74.2018 322.577 75.0997 319.402 75.0997C309.967 75.0997 303.227 67.4611 303.227 58.9247C303.227 50.3883 310.032 42.5806 319.297 42.5806C323.878 42.5806 327.886 44.3113 330.736 47.2652C334.47 51.117 335.863 55.9187 335.251 61.267H310.592L310.579 61.254ZM328.042 55.6715C327.769 52.7696 324.698 48.6966 319.336 48.7487C313.923 48.7487 310.969 52.6525 310.683 55.6715H328.029H328.042Z" fill="#717275"/>
<path d="M44.2041 31.1171C43.898 31.4572 43.5579 31.7066 43.2064 31.922C42.1634 32.693 40.8709 33.1465 39.4763 33.1465C35.9844 33.1465 33.1613 30.3121 33.1613 26.8428C33.1613 24.8587 34.0796 23.09 35.5082 21.9336C35.939 21.5141 36.4265 21.2193 36.9594 21.0492C37.7304 20.7091 38.592 20.5164 39.4877 20.5164C40.5648 20.5164 41.5738 20.7885 42.4581 21.2647L44.7484 18.7023C44.9638 18.4643 45.2019 18.2715 45.4513 18.1015C43.7506 16.945 41.6985 16.2534 39.4877 16.2534C33.6488 16.2534 28.9097 20.9926 28.9097 26.8428C28.9097 31.6953 36.1884 43.5885 38.6714 48.3163C39.0115 48.9739 39.9639 48.9739 40.304 48.3163C42.7869 43.5998 50.077 31.6953 50.077 26.8428C50.077 26.1398 50.009 25.4482 49.873 24.7793L44.2155 31.1057L44.2041 31.1171Z" fill="#717275"/>
<path d="M49.4981 19.8469C48.7498 19.0986 47.5367 19.0986 46.7998 19.8469L41.7659 24.8808C41.4371 25.2096 40.8929 25.2096 40.5641 24.8808L38.9314 23.2481C38.1832 22.4999 36.97 22.4999 36.2331 23.2481C35.4848 23.9964 35.4848 25.2096 36.2331 25.9465L39.3283 29.0417C40.3373 30.0507 41.9813 30.0507 42.9903 29.0417L49.4981 22.5452C50.2464 21.7969 50.2464 20.5951 49.4981 19.8469Z" fill="#EF4E23"/>
<path d="M60.6549 50.3447C60.5302 43.8255 57.9792 37.3517 53.0133 32.3972C52.8546 32.2385 52.6732 32.0911 52.5031 31.9323C52.0042 33.3609 51.3467 34.9028 50.5644 36.5581C53.6255 39.9821 55.4055 44.143 55.8931 48.4286L50.0202 48.8254C48.6143 48.9161 47.2311 48.5987 46.0066 47.9071L44.8955 47.2722C44.2946 48.3492 43.7618 49.3016 43.365 50.0612C43.1382 50.5034 42.8208 50.8889 42.4693 51.2177L43.7051 51.9206C45.7119 53.077 48.0021 53.5986 50.3263 53.4398L55.9157 53.0657C55.4282 57.8275 53.3761 62.4533 49.7367 66.0813C48.1268 67.6913 46.3241 68.9951 44.408 69.9815L43.433 64.4487C42.8321 61.0474 40.6326 58.0996 37.5488 56.5577C36.5964 56.0815 35.9615 55.1632 35.8594 54.0974C35.7574 53.077 36.1656 52.102 36.9479 51.4444C36.4717 51.0703 36.0635 50.5941 35.7801 50.0385C35.4286 49.3583 34.9524 48.508 34.4196 47.5443L34.2041 47.7143C32.0953 49.347 31.0069 51.9093 31.2677 54.5623C31.5285 57.2153 33.1157 59.5055 35.4966 60.6959C37.2766 61.5916 38.5578 63.2923 38.8979 65.265L40.0317 71.6708C32.8776 73.5415 24.9413 71.6708 19.3518 66.0813C18.6829 65.4124 18.0707 64.7095 17.5151 63.9838L18.7396 63.0315C20.9391 61.3195 21.642 58.2583 20.4062 55.8094L20.3155 55.628C19.6013 54.2108 20.0094 52.4875 21.2792 51.5351C22.515 50.6054 23.1273 49.0749 22.8778 47.5556L22.6511 46.1724C22.0955 42.8165 19.862 40.0728 16.7442 38.8483C17.5038 37.7259 18.3768 36.6715 19.3632 35.6738C21.438 33.599 23.8302 32.0457 26.3812 31.0027C25.9277 29.5174 25.6669 28.1796 25.6669 27.0231C25.6669 26.785 25.6896 26.5583 25.7009 26.3315C22.1976 27.59 18.8983 29.5968 16.0979 32.3972C14.1025 34.3926 12.4926 36.6375 11.2794 39.0297C11.2568 39.0637 11.2454 39.0977 11.2228 39.1317C10.0323 41.5013 9.22733 44.0069 8.80784 46.5692V46.6486L8.78516 46.7166C8.07089 51.161 8.51306 55.7414 10.089 60.0043L10.1003 60.0497L10.123 60.1177V60.1517C10.7352 61.739 11.4949 63.2809 12.4019 64.7435C12.4245 64.7775 12.4472 64.8115 12.4699 64.8455C13.4789 66.4441 14.6807 67.9634 16.0753 69.3579C21.1659 74.4485 27.8551 76.9995 34.5556 76.9995C37.5147 76.9995 40.4739 76.5006 43.2969 75.5029C43.3423 75.4916 43.399 75.4689 43.4443 75.4575C47.061 74.1537 50.2923 72.1016 53.0246 69.3579C58.0472 64.3353 60.7569 57.6688 60.6775 50.5601C60.6775 50.4921 60.6775 50.424 60.6662 50.356L60.6549 50.3447ZM16.1886 57.7255L16.234 57.8275C16.5061 58.3604 16.3587 59.018 15.8825 59.3808L15.0776 60.0043C14.7488 59.3127 14.4653 58.6098 14.2272 57.8955L14.2046 57.8388C13.1048 54.5849 12.7873 51.1156 13.2749 47.737L13.2975 47.6236C13.5356 46.0364 13.9551 44.4718 14.5447 42.9525L14.6127 42.9752C16.4381 43.5194 17.7646 45.0273 18.0707 46.898L18.2521 47.9978C15.3837 50.322 14.4993 54.3469 16.1773 57.7141L16.1886 57.7255Z" fill="#EF4E23"/>
</svg>
