<svg width="368" height="102" viewBox="0 0 368 102" fill="none" xmlns="http://www.w3.org/2000/svg">
<path d="M47.8444 33.4056C47.513 33.7737 47.1449 34.0437 46.7645 34.2768C45.6355 35.1113 44.2366 35.6021 42.7272 35.6021C38.9477 35.6021 35.8921 32.5343 35.8921 28.7793C35.8921 26.6318 36.8861 24.7175 38.4323 23.4658C38.8986 23.0118 39.4262 22.6927 40.003 22.5086C40.8374 22.1405 41.7701 21.9319 42.7395 21.9319C43.9053 21.9319 44.9974 22.2264 45.9546 22.7418L48.4334 19.9685C48.6665 19.7108 48.9242 19.5022 49.1942 19.3181C47.3535 18.0664 45.1324 17.3179 42.7395 17.3179C36.4198 17.3179 31.2903 22.4473 31.2903 28.7793C31.2903 34.0314 39.1685 46.904 41.856 52.0212C42.2241 52.7329 43.2549 52.7329 43.623 52.0212C46.3105 46.9163 54.2009 34.0314 54.2009 28.7793C54.2009 28.0185 54.1273 27.2699 53.98 26.5459L47.8566 33.3933L47.8444 33.4056Z" fill="#717275"/>
<path d="M53.5745 21.2075C52.7646 20.3976 51.4516 20.3976 50.6539 21.2075L45.2055 26.656C44.8496 27.0119 44.2606 27.0119 43.9047 26.656L42.1376 24.8889C41.3277 24.079 40.0147 24.079 39.2171 24.8889C38.4071 25.6988 38.4071 27.0119 39.2171 27.8095L42.5671 31.1596C43.6593 32.2517 45.4386 32.2517 46.5308 31.1596L53.5745 24.1281C54.3844 23.3182 54.3844 22.0174 53.5745 21.2075Z" fill="#EF4E23"/>
<path d="M65.6498 54.217C65.5149 47.161 62.7538 40.154 57.379 34.7915C57.2072 34.6197 57.0108 34.4602 56.8267 34.2884C56.2868 35.8345 55.5751 37.5034 54.7284 39.2951C58.0416 43.001 59.9682 47.5046 60.4959 52.1431L54.1393 52.5726C52.6177 52.6708 51.1206 52.3272 49.7953 51.5787L48.5927 50.8915C47.9423 52.0572 47.3656 53.088 46.9361 53.9102C46.6906 54.3888 46.347 54.806 45.9666 55.1619L47.3042 55.9227C49.4762 57.1744 51.955 57.7389 54.4707 57.5671L60.5204 57.1621C59.9928 62.3161 57.7716 67.3228 53.8325 71.2496C52.09 72.9921 50.1389 74.4033 48.065 75.4709L47.0097 69.4825C46.3593 65.8011 43.9787 62.6106 40.6409 60.9417C39.6101 60.4263 38.9229 59.4323 38.8124 58.2788C38.702 57.1744 39.1438 56.1191 39.9905 55.4073C39.4751 55.0024 39.0333 54.487 38.7265 53.8857C38.3461 53.1494 37.8307 52.229 37.254 51.186L37.0208 51.37C34.7384 53.1371 33.5603 55.9104 33.8426 58.7819C34.1248 61.6534 35.8428 64.1322 38.4198 65.4207C40.3464 66.3901 41.733 68.2309 42.1012 70.3661L43.3283 77.2994C35.5851 79.3241 26.9951 77.2994 20.9454 71.2496C20.2214 70.5256 19.5587 69.7648 18.9574 68.9794L20.2827 67.9486C22.6634 66.0956 23.4242 62.7824 22.0866 60.1318L21.9884 59.9354C21.2154 58.4015 21.6571 56.5363 23.0315 55.5055C24.3691 54.4992 25.0317 52.8426 24.7618 51.1982L24.5163 49.7011C23.915 46.0688 21.4976 43.0992 18.123 41.7739C18.9452 40.559 19.8901 39.4178 20.9577 38.3379C23.2033 36.0922 25.7926 34.4111 28.5536 33.2821C28.0628 31.6746 27.7805 30.2265 27.7805 28.9749C27.7805 28.7172 27.8051 28.4717 27.8173 28.2263C24.0255 29.5884 20.4545 31.7605 17.4235 34.7915C15.2638 36.9512 13.5212 39.381 12.2082 41.9702C12.1837 42.007 12.1714 42.0438 12.1468 42.0806C10.8584 44.6454 9.98709 47.3573 9.53305 50.1306V50.2165L9.50851 50.2902C8.73541 55.1005 9.214 60.0581 10.9197 64.6722L10.932 64.7212L10.9565 64.7949V64.8317C11.6192 66.5497 12.4414 68.2186 13.4231 69.8016C13.4476 69.8384 13.4721 69.8752 13.4967 69.912C14.5888 71.6423 15.8896 73.2866 17.399 74.796C22.9088 80.3058 30.1489 83.0669 37.4012 83.0669C40.6041 83.0669 43.8069 82.5269 46.8624 81.4471C46.9115 81.4348 46.9729 81.4103 47.022 81.398C50.9365 79.9868 54.4338 77.7657 57.3912 74.796C62.8274 69.3598 65.7603 62.1443 65.6744 54.4501C65.6744 54.3765 65.6744 54.3029 65.6621 54.2293L65.6498 54.217ZM17.5217 62.2056L17.5708 62.3161C17.8653 62.8928 17.7058 63.6046 17.1904 63.9972L16.3191 64.6722C15.9632 63.9236 15.6564 63.1628 15.3987 62.3897L15.3742 62.3283C14.1839 58.8065 13.8403 55.0514 14.368 51.3946L14.3925 51.2719C14.6502 49.5539 15.1042 47.8604 15.7423 46.2161L15.816 46.2406C17.7917 46.8297 19.2274 48.4617 19.5587 50.4865L19.7551 51.6768C16.6504 54.1925 15.6933 58.5488 17.5094 62.1934L17.5217 62.2056Z" fill="#EF4E23"/>
<path d="M87.8794 65.0558C92.194 61.1587 96.4391 57.3311 100.754 53.5036C105.138 49.6065 108.687 46.614 108.757 41.5339C108.757 37.1496 106.043 34.9227 102.354 34.9227C98.6661 34.9227 96.2999 38.8198 96.2303 43.3432H87.6706C87.8098 39.9332 88.2969 36.3145 90.8022 33.0437C94.2818 28.1027 99.9883 27.1284 103.189 27.1284C112.445 27.1284 117.665 33.5308 117.665 40.7684C117.665 48.0059 115.786 49.5369 110.566 54.4779C107.087 57.8183 103.607 61.1587 100.058 64.5686H117.873V72.0845H87.8794V65.1254V65.0558Z" fill="#6F7275"/>
<path d="M166.726 57.192C164.012 66.3084 155.453 72.8501 145.153 72.8501C134.854 72.8501 121.979 62.133 121.979 49.8848C121.979 37.6367 131.096 27.0588 145.083 27.0588C159.071 27.0588 164.987 36.4537 166.726 42.9257H157.332C155.94 39.8637 152.043 34.9227 144.944 34.8531C136.385 34.8531 130.817 42.0906 130.817 49.8848C130.817 57.6791 136.593 65.0558 145.014 65.0558C153.434 65.0558 156.496 58.8622 157.332 57.2616H166.726V57.192Z" fill="#6F7275"/>
<path d="M170.415 55.5219C170.415 47.1709 176.539 38.2632 187.952 38.2632C199.365 38.2632 205.489 47.1709 205.489 55.5915C205.489 64.012 199.365 72.9893 187.952 72.9893C176.539 72.9893 170.415 64.0816 170.415 55.5915V55.5219ZM178.209 55.6611C178.209 61.3676 182.593 65.6126 187.952 65.6126C193.31 65.6126 197.625 61.3676 197.625 55.5915C197.625 49.8154 193.31 45.5703 187.952 45.5703C182.593 45.5703 178.209 49.8154 178.209 55.5915V55.6611Z" fill="#6F7275"/>
<path d="M211.126 27.8245H218.92V72.0151H211.126V27.8245Z" fill="#6F7275"/>
<path d="M226.158 27.8245H233.952V72.0151H226.158V27.8245Z" fill="#6F7275"/>
<path d="M247.174 58.2359C247.522 63.4553 252.185 66.3782 256.639 66.3782C261.093 66.3782 263.041 64.6384 264.503 61.9939H272.575C271.044 65.6127 268.678 68.3963 265.964 70.2057C263.25 72.0847 259.979 73.0589 256.569 73.0589C246.478 73.0589 239.241 64.9167 239.241 55.7307C239.241 46.5446 246.548 38.2632 256.43 38.2632C266.312 38.2632 265.616 40.1421 268.678 43.2738C272.645 47.3797 274.176 52.5294 273.48 58.2359H247.105H247.174ZM265.825 52.2511C265.546 49.1195 262.276 44.8048 256.5 44.8744C250.723 44.8744 247.522 49.0499 247.244 52.2511H265.825Z" fill="#6F7275"/>
<path d="M311.686 60.0451C309.807 67.3522 303.335 72.9891 294.845 72.9891C286.354 72.9891 277.307 64.9165 277.307 55.5912C277.307 46.266 284.754 38.1934 294.566 38.1934C304.379 38.1934 309.807 43.4127 311.686 51.4157H303.683C302.291 47.9362 299.159 45.5005 294.845 45.5005C290.53 45.5005 289.764 46.4748 287.885 48.2841C286.215 50.0935 285.171 52.6684 285.171 55.5912C285.171 61.5065 289.277 65.682 294.845 65.682C300.412 65.682 302.5 62.7592 303.683 60.0451H311.686Z" fill="#6F7275"/>
<path d="M318.784 45.2919H313.356V39.2375H318.784V27.8245H326.578V39.2375H332.215V45.2919H326.578V72.0151H318.784V45.2919Z" fill="#6F7275"/>
</svg>
