<svg width="394" height="176" viewBox="0 0 394 176" fill="none" xmlns="http://www.w3.org/2000/svg">
<g clip-path="url(#clip0_6_1348)">
<path d="M195 227.433C179.32 227.433 166.567 214.68 166.567 199C166.567 183.32 179.32 170.567 195 170.567C210.68 170.567 223.433 183.304 223.433 199C223.433 214.696 210.696 227.433 195 227.433ZM195 142.15C163.656 142.15 138.15 167.656 138.15 199C138.15 230.344 163.656 255.85 195 255.85C226.344 255.85 251.85 230.344 251.85 199C251.85 167.656 226.344 142.15 195 142.15Z" fill="#EF4E23"/>
<path d="M213.141 290.974C161.919 299.706 113.158 265.146 104.426 213.924C95.693 162.703 130.27 113.942 181.475 105.209C219.493 98.7281 258.058 116.66 277.871 149.226C267.482 158.184 261.853 172.175 264.33 186.649C266.807 201.123 276.745 212.445 289.515 217.446C281.618 254.757 251.159 284.46 213.141 290.941M316.034 177.852C316.581 181.004 315.857 184.188 313.975 186.81C312.126 189.431 309.376 191.168 306.208 191.699C299.727 192.825 293.471 188.418 292.345 181.889C291.814 178.737 292.538 175.552 294.404 172.931C296.269 170.31 299.019 168.573 302.171 168.042C308.733 166.916 314.908 171.339 316.034 177.852ZM344.049 173.076C340.736 153.616 323.979 139.818 304.921 139.464C280.107 93.9678 228.049 68.4294 176.683 77.1942C110.022 88.5642 65.0244 152.04 76.3784 218.701C86.5584 278.43 138.568 320.742 197.219 320.742C204.038 320.742 210.937 320.163 217.901 318.989C269.251 310.224 309.907 268.877 318.269 217.736C325.828 214.937 332.406 209.968 337.182 203.246C343.422 194.433 345.866 183.722 344.049 173.076Z" fill="#EF4E23"/>
<path d="M195 369.583C100.936 369.583 24.4332 293.064 24.4332 199.016C24.4332 177.337 28.4537 156.415 36.2857 136.634C40.3867 137.84 44.7288 138.515 49.2157 138.515C74.6415 138.515 95.3231 117.834 95.3231 92.4078C95.3231 82.9193 92.4444 74.0903 87.4911 66.7407C117.838 42.0065 155.486 28.4492 195 28.4492C289.048 28.4492 365.567 104.968 365.567 199.016C365.567 293.064 289.048 369.583 195 369.583ZM49.2157 74.7014C58.9615 74.7014 66.89 82.6299 66.89 92.3917C66.89 102.154 58.9615 110.066 49.2157 110.066C39.47 110.066 31.5415 102.137 31.5415 92.3917C31.5415 82.646 39.47 74.7014 49.2157 74.7014ZM195 0C146.641 0 100.646 17.2883 64.3972 48.9057C59.6369 47.2492 54.5389 46.2843 49.2157 46.2843C23.7899 46.2843 3.10832 66.9659 3.10832 92.3917C3.10832 102.749 6.58206 112.285 12.3555 119.989C1.51619 144.916 -3.99997 171.435 -3.99997 199C-3.99997 308.728 85.2718 398 195 398C304.728 398 394 308.728 394 199C394 89.2718 304.728 0 195 0Z" fill="#EF4E23"/>
</g>
<defs>
<clipPath id="clip0_6_1348">
<rect width="398" height="398" fill="white" transform="translate(-3.99997)"/>
</clipPath>
</defs>
</svg>
