<svg width="24" height="25" viewBox="0 0 24 25" fill="none" xmlns="http://www.w3.org/2000/svg">
<path d="M14.6679 6.17657C15.1531 6.17893 15.5679 6.29432 15.5995 6.80772C15.62 7.15038 15.4034 7.51305 15.2512 8.00172C15.7068 8.74945 16.2993 9.6526 16.8254 10.6029C17.9563 12.6435 18.7653 14.829 18.9717 17.27C19.1995 19.9594 18.038 22.3474 16.0316 23.1964C15.6097 23.3742 15.1368 23.459 14.6863 23.4649C12.6421 23.4931 10.5949 23.406 8.55388 23.4967C6.53836 23.5862 4.46665 21.8682 4.08561 19.0127C3.7863 16.7695 4.30014 14.6606 5.18582 12.7094C5.89274 11.1539 6.80601 9.72325 7.62938 8.2384C7.70089 8.11005 7.78772 7.9923 7.71417 7.90163C7.60077 7.53072 7.34334 7.11505 7.41587 6.80183C7.48942 6.48744 7.89294 6.27431 8.22903 5.93989C7.93789 5.26282 7.57115 4.4103 7.20543 3.5566C7.06957 3.23984 6.86321 2.93134 6.82746 2.59928C6.79477 2.29783 6.86832 1.86568 7.04505 1.68434C7.19317 1.53245 7.62529 1.53833 7.81428 1.68081C8.92675 2.51449 10.0055 2.53922 11.0965 1.66079C11.3846 1.42882 11.6594 1.46297 11.9465 1.69023C13.0048 2.52745 14.0723 2.52745 15.1317 1.69377C15.4177 1.46886 15.6996 1.41352 15.9775 1.66904C16.2656 1.93516 16.331 2.28606 16.1665 2.6711C15.6813 3.8133 15.1909 4.95313 14.6689 6.17539L14.6679 6.17657ZM11.4786 21.8764C12.5175 21.8764 13.5564 21.854 14.5953 21.8823C15.7865 21.9141 16.6139 21.2511 17.1625 20.1078C17.8664 18.6429 17.6794 17.098 17.3117 15.5838C16.6078 12.6824 15.148 10.2802 13.4481 8.05236C13.3337 7.90281 13.1018 7.80508 12.922 7.80037C11.9863 7.77564 11.0485 7.7674 10.1128 7.80508C9.89416 7.8145 9.602 7.95933 9.47737 8.15598C8.52732 9.65849 7.5262 11.1316 6.70487 12.7247C5.80182 14.4781 5.27981 16.408 5.40137 18.5052C5.49638 20.149 6.70181 22.0566 8.56716 21.8905C9.53253 21.8046 10.5081 21.8752 11.4786 21.8752V21.8764ZM8.92777 4.04644C9.19133 4.63991 9.47737 5.32405 9.80324 5.98228C9.86351 6.10474 10.0791 6.1801 10.2251 6.18364C11.0751 6.20248 11.926 6.19894 12.776 6.18599C12.9118 6.18364 13.1202 6.13654 13.1713 6.03056C13.5043 5.33582 13.8026 4.61989 14.056 4.03938C13.2101 3.79328 12.4164 3.56013 11.6206 3.33405C11.545 3.31285 11.4561 3.31285 11.3795 3.33405C10.5827 3.56131 9.78792 3.79563 8.92879 4.04527L8.92777 4.04644Z" fill="#F04E23"/>
<path d="M12.409 18.1171C12.2814 19.2319 12.0866 19.5135 11.4759 19.4995C10.8771 19.4855 10.6968 19.2125 10.5967 18.1257C9.75309 18.0139 8.97789 17.7592 8.45802 17.1454C8.09872 16.7219 8.11188 16.2962 8.50277 16.0371C8.94367 15.7458 9.38589 15.8415 9.86365 16.2607C10.0545 16.4284 10.3493 16.5897 10.6152 16.6133C11.2008 16.666 11.7983 16.6423 12.3893 16.6262C12.9052 16.6122 13.2263 16.3596 13.2435 15.9533C13.2619 15.5147 12.9144 15.2514 12.3919 15.2148C11.8694 15.1793 11.3403 15.2062 10.8139 15.203C9.28192 15.1955 8.16453 14.4387 8.01712 13.3122C7.86445 12.1373 8.74231 11.2064 10.269 10.9258C10.373 10.9064 10.4796 10.8925 10.598 10.8742C10.7165 10.3314 10.3835 9.57782 11.493 9.50365C12.0892 9.46388 12.2577 9.73799 12.4156 10.8774C13.2263 10.9795 13.9634 11.215 14.4819 11.7847C14.9057 12.2501 14.907 12.7037 14.4661 12.9725C14.0134 13.2487 13.6186 13.1477 13.1158 12.7091C12.925 12.5425 12.6209 12.3963 12.3511 12.3716C11.7878 12.32 11.2127 12.3447 10.6428 12.3598C10.1005 12.3737 9.75704 12.6274 9.75572 13.0628C9.75309 13.497 10.1098 13.7529 10.6362 13.7819C11.16 13.8099 11.6891 13.7884 12.2156 13.7916C13.7383 13.8013 14.8531 14.5709 14.986 15.7028C15.1229 16.8595 14.2463 17.7904 12.7696 18.0591C12.663 18.0784 12.5551 18.0924 12.4117 18.115L12.409 18.1171Z" fill="#F04E23"/>
</svg>
