<svg width="20" height="20" viewBox="0 0 20 20" fill="none" xmlns="http://www.w3.org/2000/svg">
<path d="M15.8332 3.33317H14.9998V2.49984C14.9998 1.99984 14.6665 1.6665 14.1665 1.6665C13.6665 1.6665 13.3332 1.99984 13.3332 2.49984V3.33317H6.6665V2.49984C6.6665 1.99984 6.33317 1.6665 5.83317 1.6665C5.33317 1.6665 4.99984 1.99984 4.99984 2.49984V3.33317H4.1665C2.74984 3.33317 1.6665 4.4165 1.6665 5.83317V6.6665H18.3332V5.83317C18.3332 4.4165 17.2498 3.33317 15.8332 3.33317ZM1.6665 15.8332C1.6665 17.2498 2.74984 18.3332 4.1665 18.3332H15.8332C17.2498 18.3332 18.3332 17.2498 18.3332 15.8332V8.33317H1.6665V15.8332ZM14.1665 9.99984C14.6665 9.99984 14.9998 10.3332 14.9998 10.8332C14.9998 11.3332 14.6665 11.6665 14.1665 11.6665C13.6665 11.6665 13.3332 11.3332 13.3332 10.8332C13.3332 10.3332 13.6665 9.99984 14.1665 9.99984ZM14.1665 13.3332C14.6665 13.3332 14.9998 13.6665 14.9998 14.1665C14.9998 14.6665 14.6665 14.9998 14.1665 14.9998C13.6665 14.9998 13.3332 14.6665 13.3332 14.1665C13.3332 13.6665 13.6665 13.3332 14.1665 13.3332ZM9.99984 9.99984C10.4998 9.99984 10.8332 10.3332 10.8332 10.8332C10.8332 11.3332 10.4998 11.6665 9.99984 11.6665C9.49984 11.6665 9.1665 11.3332 9.1665 10.8332C9.1665 10.3332 9.49984 9.99984 9.99984 9.99984ZM9.99984 13.3332C10.4998 13.3332 10.8332 13.6665 10.8332 14.1665C10.8332 14.6665 10.4998 14.9998 9.99984 14.9998C9.49984 14.9998 9.1665 14.6665 9.1665 14.1665C9.1665 13.6665 9.49984 13.3332 9.99984 13.3332ZM5.83317 9.99984C6.33317 9.99984 6.6665 10.3332 6.6665 10.8332C6.6665 11.3332 6.33317 11.6665 5.83317 11.6665C5.33317 11.6665 4.99984 11.3332 4.99984 10.8332C4.99984 10.3332 5.33317 9.99984 5.83317 9.99984ZM5.83317 13.3332C6.33317 13.3332 6.6665 13.6665 6.6665 14.1665C6.6665 14.6665 6.33317 14.9998 5.83317 14.9998C5.33317 14.9998 4.99984 14.6665 4.99984 14.1665C4.99984 13.6665 5.33317 13.3332 5.83317 13.3332Z" fill="#717275"/>
</svg>
