<svg width="24" height="26" viewBox="0 0 24 26" fill="none" xmlns="http://www.w3.org/2000/svg">
<path d="M11.6129 21.204C9.66352 21.204 7.71418 21.2092 5.7655 21.2014C4.97953 21.1982 4.22279 21.0753 3.52191 20.6713C2.06105 19.8301 1.26598 18.5811 1.24064 16.9079C1.20557 14.6024 1.18998 12.2949 1.2439 9.9901C1.28612 8.19148 2.16692 6.83767 3.82265 6.09352C4.39557 5.8362 5.07956 5.72306 5.71418 5.71724C9.64469 5.68427 13.5758 5.68492 17.5063 5.70755C19.381 5.71854 20.7782 6.56677 21.607 8.26389C21.8896 8.84317 21.9883 9.47741 21.9916 10.1162C22.002 12.3363 22.0026 14.5558 21.9935 16.776C21.9851 18.8649 20.7087 20.5284 18.682 21.0695C18.2806 21.1769 17.8467 21.1956 17.4277 21.1988C15.4894 21.2118 13.5511 21.2047 11.6129 21.2047V21.204ZM11.622 11.7079C9.6947 11.7079 7.76745 11.7079 5.8402 11.7079C4.98472 11.7079 4.12925 11.7105 3.27378 11.706C3.07696 11.7053 2.93536 11.7325 2.9373 11.9794C2.95095 13.7244 2.92821 15.4707 2.97822 17.215C3.01265 18.4285 4.2754 19.4856 5.36602 19.4836C9.52386 19.4771 13.6817 19.4752 17.8396 19.4862C18.9406 19.4894 20.2287 18.4033 20.254 17.1691C20.2878 15.4998 20.2787 13.8298 20.2865 12.1598C20.2884 11.7092 20.2858 11.7086 19.8402 11.7086C17.101 11.7086 14.3612 11.7086 11.622 11.7086V11.7079ZM11.5927 10.0276C12.1124 10.0276 12.632 10.0276 13.1517 10.0276C15.3933 10.0276 17.6343 10.0276 19.8759 10.0276C20.2774 10.0276 20.3157 9.9998 20.2442 9.60348C20.1988 9.35263 20.128 9.09596 20.013 8.87033C19.4901 7.83913 18.621 7.40725 17.4758 7.41048C13.5667 7.42147 9.65767 7.41436 5.74861 7.41566C5.58622 7.41566 5.42383 7.42212 5.26209 7.43311C4.13964 7.51069 3.10554 8.49017 2.97238 9.59896C2.92301 10.0108 2.9386 10.0282 3.37381 10.0282C6.11366 10.0282 8.85287 10.0282 11.5927 10.0282V10.0276Z" fill="#F04E23"/>
<path d="M5.99471 15.2012C6.71182 15.2057 7.26006 15.7624 7.25551 16.4826C7.25096 17.1931 6.6813 17.7498 5.96743 17.7414C5.25226 17.7336 4.69429 17.1666 4.70273 16.4567C4.71118 15.7449 5.27499 15.1967 5.99471 15.2012Z" fill="#F04E23"/>
</svg>
