<svg width="36" height="36" viewBox="0 0 36 36" fill="none" xmlns="http://www.w3.org/2000/svg">
<path fill-rule="evenodd" clip-rule="evenodd" d="M18 6C11.3726 6 6 11.3726 6 18C6 24.6274 11.3726 30 18 30C24.6274 30 30 24.6274 30 18C30 11.3726 24.6274 6 18 6ZM3 18C3 9.71573 9.71573 3 18 3C26.2843 3 33 9.71573 33 18C33 26.2843 26.2843 33 18 33C9.71573 33 3 26.2843 3 18ZM18 10.5C18.8284 10.5 19.5 11.1716 19.5 12V18C19.5 18.8284 18.8284 19.5 18 19.5C17.1716 19.5 16.5 18.8284 16.5 18V12C16.5 11.1716 17.1716 10.5 18 10.5ZM16.5 24C16.5 23.1716 17.1716 22.5 18 22.5H18.015C18.8434 22.5 19.515 23.1716 19.515 24C19.515 24.8284 18.8434 25.5 18.015 25.5H18C17.1716 25.5 16.5 24.8284 16.5 24Z" fill="#F04E23"/>
</svg>
