<svg width="21" height="21" viewBox="0 0 21 21" fill="none" xmlns="http://www.w3.org/2000/svg">
<path d="M7.16667 3.24121H7C5.59987 3.24121 4.8998 3.24121 4.36503 3.51369C3.89462 3.75338 3.51217 4.13583 3.27248 4.60624C3 5.14101 3 5.84108 3 7.24121V7.40788M7.16667 18.2412H7C5.59987 18.2412 4.8998 18.2412 4.36503 17.9687C3.89462 17.729 3.51217 17.3466 3.27248 16.8762C3 16.3414 3 15.6414 3 14.2412V14.0745M18 7.40788V7.24121C18 5.84108 18 5.14101 17.7275 4.60624C17.4878 4.13583 17.1054 3.75338 16.635 3.51369C16.1002 3.24121 15.4002 3.24121 14 3.24121H13.8333M18 14.0745V14.2412C18 15.6414 18 16.3414 17.7275 16.8762C17.4878 17.3466 17.1054 17.729 16.635 17.9687C16.1002 18.2412 15.4002 18.2412 14 18.2412H13.8333M6.75 7.40788V8.65788M14.25 7.40788V8.65788M9.66667 11.2413C10.3333 11.2413 10.9167 10.658 10.9167 9.99129V7.40788M13.1668 13.4079C11.6668 14.9079 9.25017 14.9079 7.75017 13.4079" stroke="#0093D4" stroke-width="2" stroke-linecap="round" stroke-linejoin="round"/>
</svg>
