<svg width="60" height="61" viewBox="0 0 60 61" fill="none" xmlns="http://www.w3.org/2000/svg">
<rect y="0.741211" width="60" height="60" rx="30" fill="#FBC7AD"/>
<path d="M24 17.2412H23.7C21.1798 17.2412 19.9196 17.2412 18.957 17.7317C18.1103 18.1631 17.4219 18.8515 16.9905 19.6983C16.5 20.6609 16.5 21.921 16.5 24.4412V24.7412M24 44.2412H23.7C21.1798 44.2412 19.9196 44.2412 18.957 43.7507C18.1103 43.3193 17.4219 42.631 16.9905 41.7842C16.5 40.8215 16.5 39.5615 16.5 37.0412V36.7412M43.5 24.7412V24.4412C43.5 21.921 43.5 20.6609 43.0095 19.6983C42.5781 18.8515 41.8897 18.1631 41.043 17.7317C40.0803 17.2412 38.8203 17.2412 36.3 17.2412H36M43.5 36.7412V37.0412C43.5 39.5615 43.5 40.8215 43.0095 41.7842C42.5781 42.631 41.8897 43.3193 41.043 43.7507C40.0803 44.2412 38.8203 44.2412 36.3 44.2412H36M23.25 24.7412V26.9912M36.75 24.7412V26.9912M28.5 31.6414C29.7 31.6414 30.75 30.5914 30.75 29.3914V24.7412M34.8003 35.5412C32.1003 38.2412 27.7503 38.2412 25.0503 35.5412" stroke="#F04E23" stroke-width="3" stroke-linecap="round" stroke-linejoin="round"/>
</svg>
