<svg width="22" height="22" viewBox="0 0 22 22" fill="none" xmlns="http://www.w3.org/2000/svg">
<path d="M12.6268 8.90538C12.9888 9.32252 13.6203 9.36726 14.0375 9.0053C14.4546 8.64335 14.4994 8.01176 14.1374 7.59462L12.6268 8.90538ZM9.37322 13.0946C9.01127 12.6775 8.37968 12.6327 7.96254 12.9947C7.5454 13.3567 7.50066 13.9882 7.86262 14.4054L9.37322 13.0946ZM12 6.41667C12 5.86438 11.5523 5.41667 11 5.41667C10.4477 5.41667 10 5.86438 10 6.41667H12ZM10 15.5833C9.99999 16.1356 10.4477 16.5833 11 16.5833C11.5523 16.5833 12 16.1356 12 15.5834L10 15.5833ZM18.25 11C18.25 15.0041 15.0041 18.25 11 18.25V20.25C16.1086 20.25 20.25 16.1086 20.25 11H18.25ZM11 18.25C6.99594 18.25 3.75 15.0041 3.75 11H1.75C1.75 16.1086 5.89137 20.25 11 20.25V18.25ZM3.75 11C3.75 6.99594 6.99594 3.75 11 3.75V1.75C5.89137 1.75 1.75 5.89137 1.75 11H3.75ZM11 3.75C15.0041 3.75 18.25 6.99594 18.25 11H20.25C20.25 5.89137 16.1086 1.75 11 1.75V3.75ZM11 10C10.4105 10 9.92204 9.8389 9.61016 9.63098C9.29129 9.4184 9.25 9.23455 9.25 9.16667H7.25C7.25 10.1113 7.82432 10.8441 8.50076 11.2951C9.18418 11.7507 10.0707 12 11 12V10ZM9.25 9.16667C9.25 9.09879 9.29129 8.91493 9.61016 8.70235C9.92204 8.49444 10.4105 8.33333 11 8.33333V6.33333C10.0707 6.33333 9.18418 6.58264 8.50076 7.03825C7.82432 7.48921 7.25 8.22202 7.25 9.16667H9.25ZM11 8.33333C11.8112 8.33333 12.3897 8.63213 12.6268 8.90538L14.1374 7.59462C13.4235 6.7719 12.2245 6.33333 11 6.33333V8.33333ZM11 12C11.5895 12 12.078 12.1611 12.3899 12.369C12.7087 12.5816 12.75 12.7655 12.75 12.8333H14.75C14.75 11.8887 14.1757 11.1559 13.4992 10.7049C12.8158 10.2493 11.9293 10 11 10V12ZM10 6.41667V7.33333H12V6.41667H10ZM10 14.6666L10 15.5833L12 15.5834L12 14.6667L10 14.6666ZM11 13.6667C10.1888 13.6667 9.61032 13.3679 9.37322 13.0946L7.86262 14.4054C8.57649 15.2281 9.7755 15.6667 11 15.6667L11 13.6667ZM12.75 12.8333C12.75 12.9012 12.7087 13.0851 12.3899 13.2976C12.078 13.5056 11.5895 13.6667 11 13.6667V15.6667C11.9293 15.6667 12.8158 15.4174 13.4993 14.9617C14.1757 14.5108 14.75 13.778 14.75 12.8333H12.75ZM10 7.33334L10 14.6667L12 14.6667L12 7.33333L10 7.33334Z" fill="#F04E23"/>
</svg>
