<svg width="21" height="21" viewBox="0 0 21 21" fill="none" xmlns="http://www.w3.org/2000/svg">
<path fill-rule="evenodd" clip-rule="evenodd" d="M6.74942 3.41184C7.85342 2.77321 9.13533 2.40796 10.5 2.40796C14.6422 2.40796 18 5.76582 18 9.90796C18 12.0468 17.7013 14.1174 17.1429 16.0794C17.0169 16.522 16.5559 16.7787 16.1133 16.6528C15.6706 16.5268 15.4139 16.0658 15.5399 15.6231C16.0565 13.808 16.3334 11.891 16.3334 9.90796C16.3334 6.6863 13.7217 4.07463 10.5 4.07463C9.43614 4.07463 8.44112 4.35867 7.58397 4.85451C7.18558 5.08496 6.67581 4.94883 6.44536 4.55045C6.2149 4.15206 6.35104 3.64229 6.74942 3.41184ZM5.14251 5.85329C5.5409 6.08374 5.67703 6.59351 5.44658 6.9919C4.95074 7.84905 4.66669 8.84407 4.66669 9.90796C4.66669 11.3407 4.3374 12.6989 3.74959 13.9089C3.54848 14.3228 3.04986 14.4954 2.63589 14.2943C2.22191 14.0932 2.04935 13.5946 2.25046 13.1806C2.73042 12.1926 3.00003 11.083 3.00003 9.90796C3.00003 8.54327 3.36527 7.26135 4.0039 6.15735C4.23436 5.75897 4.74413 5.62283 5.14251 5.85329ZM6.33328 9.90796C6.33328 7.60677 8.19876 5.74129 10.4999 5.74129C12.8011 5.74129 14.6666 7.60677 14.6666 9.90796C14.6666 10.7934 14.6063 11.6657 14.4896 12.5207C14.4273 12.9767 14.0071 13.2959 13.5511 13.2336C13.0951 13.1713 12.7759 12.7512 12.8382 12.2952C12.9448 11.5146 12.9999 10.7176 12.9999 9.90796C12.9999 8.52725 11.8807 7.40796 10.4999 7.40796C9.11924 7.40796 7.99995 8.52725 7.99995 9.90796C7.99995 12.3543 7.29973 14.6294 6.08982 16.5528C6.07813 16.5714 6.06672 16.5901 6.05559 16.6088C5.82058 17.0045 5.30928 17.1348 4.91357 16.8998C4.51786 16.6648 4.38758 16.1534 4.6226 15.7577C4.64098 15.7268 4.6598 15.696 4.67907 15.6654L5.38445 16.1091L4.67907 15.6654C5.72665 14.0001 6.33328 12.0312 6.33328 9.90796ZM10.4999 9.07463C10.9602 9.07463 11.3333 9.44772 11.3333 9.90796C11.3333 13.0005 10.4458 15.8883 8.91129 18.3277C8.66623 18.7173 8.15176 18.8344 7.7622 18.5893C7.37263 18.3443 7.25548 17.8298 7.50054 17.4402C8.87274 15.2589 9.66659 12.6774 9.66659 9.90796C9.66659 9.44772 10.0397 9.07463 10.4999 9.07463ZM13.3692 14.1061C13.812 14.2314 14.0695 14.692 13.9441 15.1349C13.6145 16.2999 13.1774 17.4203 12.6444 18.4842C12.4383 18.8957 11.9376 19.0622 11.5261 18.856C11.1146 18.6499 10.9482 18.1492 11.1543 17.7377C11.6408 16.7666 12.0396 15.7441 12.3404 14.6811C12.4658 14.2382 12.9263 13.9808 13.3692 14.1061Z" fill="#0093D4"/>
</svg>
