<svg width="60" height="61" viewBox="0 0 60 61" fill="none" xmlns="http://www.w3.org/2000/svg">
<rect y="0.741211" width="60" height="60" rx="30" fill="#FBC7AD"/>
<path fill-rule="evenodd" clip-rule="evenodd" d="M23.2488 17.5482C25.236 16.3987 27.5434 15.7412 29.9999 15.7412C37.4557 15.7412 43.4999 21.7854 43.4999 29.2412C43.4999 33.0912 42.9622 36.8181 41.957 40.3498C41.7303 41.1466 40.9005 41.6086 40.1037 41.3818C39.3069 41.1551 38.8449 40.3253 39.0716 39.5285C40.0015 36.2613 40.4999 32.8107 40.4999 29.2412C40.4999 23.4422 35.7988 18.7412 29.9999 18.7412C28.0849 18.7412 26.2938 19.2525 24.7509 20.145C24.0339 20.5598 23.1163 20.3148 22.7014 19.5977C22.2866 18.8806 22.5317 17.963 23.2488 17.5482ZM20.3563 21.9428C21.0734 22.3576 21.3185 23.2752 20.9036 23.9923C20.0111 25.5352 19.4999 27.3262 19.4999 29.2412C19.4999 31.8202 18.9071 34.2649 17.8491 36.4429C17.4871 37.188 16.5896 37.4986 15.8444 37.1366C15.0992 36.7746 14.7886 35.8771 15.1506 35.1319C16.0146 33.3536 16.4999 31.3562 16.4999 29.2412C16.4999 26.7848 17.1573 24.4773 18.3068 22.4901C18.7216 21.773 19.6392 21.528 20.3563 21.9428ZM22.4997 29.2412C22.4997 25.0991 25.8576 21.7412 29.9997 21.7412C34.1418 21.7412 37.4997 25.0991 37.4997 29.2412C37.4997 30.8349 37.3912 32.4051 37.181 33.9442C37.0689 34.765 36.3126 35.3395 35.4918 35.2274C34.671 35.1153 34.0965 34.359 34.2086 33.5382C34.4005 32.1331 34.4997 30.6986 34.4997 29.2412C34.4997 26.7559 32.485 24.7412 29.9997 24.7412C27.5144 24.7412 25.4997 26.7559 25.4997 29.2412C25.4997 33.6446 24.2393 37.7399 22.0615 41.2019C22.0404 41.2354 22.0199 41.269 21.9999 41.3027C21.5769 42.015 20.6565 42.2495 19.9442 41.8265C19.2319 41.4034 18.9975 40.4831 19.4205 39.7708C19.4536 39.7151 19.4875 39.6597 19.5221 39.6045L20.7918 40.4032L19.5221 39.6045C21.4078 36.607 22.4997 33.0631 22.4997 29.2412ZM29.9997 27.7412C30.8281 27.7412 31.4997 28.4128 31.4997 29.2412C31.4997 34.8078 29.9022 40.0059 27.1401 44.3967C26.699 45.098 25.773 45.3088 25.0718 44.8677C24.3705 44.4266 24.1597 43.5006 24.6008 42.7993C27.0707 38.8729 28.4997 34.2262 28.4997 29.2412C28.4997 28.4128 29.1712 27.7412 29.9997 27.7412ZM35.1644 36.7979C35.9615 37.0235 36.4248 37.8525 36.1993 38.6496C35.6058 40.7467 34.8192 42.7635 33.8598 44.6785C33.4887 45.4192 32.5875 45.7188 31.8468 45.3478C31.1061 44.9767 30.8065 44.0754 31.1776 43.3348C32.0533 41.5868 32.7711 39.7463 33.3126 37.8328C33.5382 37.0357 34.3672 36.5723 35.1644 36.7979Z" fill="#F04E23"/>
</svg>
