<svg width="24" height="24" viewBox="0 0 24 24" fill="none" xmlns="http://www.w3.org/2000/svg">
<path d="M15.3031 8.69884C14.9462 8.34192 14.3721 8.34192 14.0152 8.69884L0.267658 22.448C-0.0892195 22.8049 -0.0892195 23.3791 0.267658 23.736C0.438339 23.9067 0.671044 23.9999 0.903791 23.9999C1.13654 23.9999 1.36934 23.9067 1.54002 23.736L15.2876 9.98686C15.6444 9.62994 15.6444 9.05576 15.2876 8.69884H15.3031Z" fill="#E94F27"/>
<path d="M23.8205 0.78472C23.8205 0.738165 23.7894 0.707129 23.7739 0.676092C23.7739 0.660574 23.774 0.645052 23.7585 0.629533C23.7585 0.614015 23.7274 0.582977 23.7119 0.567459C23.6653 0.489868 23.6033 0.412281 23.5257 0.365726C23.5257 0.365726 23.5101 0.365722 23.4946 0.350204C23.4636 0.319168 23.4171 0.288132 23.3706 0.272614C23.3706 0.272614 23.3395 0.272617 23.324 0.257098C23.2774 0.24158 23.2464 0.226058 23.1998 0.210539C23.0136 0.163985 18.6536 -1.07747 14.5262 3.05039L13.5951 3.98148C13.5951 3.98148 13.4866 3.98148 13.44 3.98148L4.95257 5.57986C4.62673 5.64194 4.34741 5.89023 4.25431 6.20059C4.16121 6.52648 4.25426 6.86788 4.487 7.11617L8.11789 10.7474C8.28857 10.9181 8.52128 11.0113 8.75402 11.0113C8.98677 11.0113 9.21957 10.9181 9.39025 10.7474L15.8141 4.32288C18.4208 1.71581 21.0586 1.71581 22.1602 1.85548C22.2999 2.94176 22.2844 5.6109 19.6932 8.20245L13.2694 14.627C12.9125 14.9839 12.9125 15.5581 13.2694 15.915L16.9001 19.5463C17.0708 19.717 17.3036 19.8101 17.5364 19.8101C17.6295 19.8101 17.7225 19.8101 17.8001 19.7636C18.126 19.6705 18.3588 19.3911 18.4208 19.0652L20.019 10.5767C20.019 10.5767 20.019 10.4681 20.019 10.4216L20.95 9.49046C25.0774 5.3626 23.836 1.00197 23.7894 0.815751L23.8205 0.78472ZM11.3453 6.20059L8.75402 8.79215L6.98522 7.02306L11.3453 6.20059ZM16.9778 17.0013L15.2089 15.2322L17.8001 12.6407L16.9778 17.0013Z" fill="#E94F27"/>
<path d="M10.6317 17.2339L6.90773 20.9428C6.55086 21.2997 6.55086 21.8739 6.90773 22.2308C7.07841 22.4015 7.31121 22.4946 7.54396 22.4946C7.77671 22.4946 8.00941 22.4015 8.18009 22.2308L11.8885 18.5064C12.2454 18.1495 12.2454 17.5753 11.8885 17.2184C11.5317 16.8615 10.9575 16.8615 10.6007 17.2184L10.6317 17.2339Z" fill="#E94F27"/>
<path d="M2.3621 17.5595C2.59485 17.5595 2.82765 17.4664 2.99833 17.2957L6.70668 13.5713C7.06356 13.2144 7.06356 12.6402 6.70668 12.2833C6.3498 11.9264 5.77576 11.9264 5.41889 12.2833L1.6949 15.9922C1.33803 16.3491 1.33803 16.9233 1.6949 17.2802C1.86559 17.4509 2.09838 17.544 2.33113 17.544L2.3621 17.5595Z" fill="#E94F27"/>
<path d="M14.3566 20.9741C14.3566 20.6948 14.1393 20.6172 13.9065 20.6172H13.348V21.9362H13.5342V21.331H13.7824L14.1238 21.9362H14.341L13.9996 21.331C14.1703 21.331 14.3566 21.2224 14.3566 20.9741ZM13.7359 21.1448H13.5342V20.8189H13.86C14.0152 20.8189 14.1548 20.8189 14.1548 21.0051C14.1548 21.1914 13.9066 21.1603 13.7359 21.1603V21.1448Z" fill="#E94F27"/>
<path d="M13.7969 20.0894C13.1297 20.0894 12.6177 20.617 12.6177 21.2687C12.6177 21.9205 13.1452 22.4481 13.7969 22.4481C14.4486 22.4481 14.9762 21.9205 14.9762 21.2687C14.9762 20.617 14.4486 20.0894 13.7969 20.0894ZM13.7969 22.2619C13.2539 22.2619 12.804 21.8274 12.804 21.2687C12.804 20.7101 13.2539 20.2756 13.7969 20.2756C14.34 20.2756 14.79 20.7101 14.79 21.2687C14.79 21.8274 14.34 22.2619 13.7969 22.2619Z" fill="#E94F27"/>
</svg>
