<svg width="24" height="24" viewBox="0 0 24 24" fill="none" xmlns="http://www.w3.org/2000/svg">
<path fill-rule="evenodd" clip-rule="evenodd" d="M1 6.44C1 5.64471 1.64471 5 2.44 5H21.64C22.4353 5 23.08 5.64471 23.08 6.44C23.08 7.23529 22.4353 7.88 21.64 7.88H2.44C1.64471 7.88 1 7.23529 1 6.44ZM1 11.4421C1 10.6468 1.64471 10.0021 2.44 10.0021H15.24C16.0353 10.0021 16.68 10.6468 16.68 11.4421C16.68 12.2374 16.0353 12.8821 15.24 12.8821H2.44C1.64471 12.8821 1 12.2374 1 11.4421ZM1 17C1 16.2047 1.64471 15.56 2.44 15.56H18.44C19.2353 15.56 19.88 16.2047 19.88 17C19.88 17.7953 19.2353 18.44 18.44 18.44H2.44C1.64471 18.44 1 17.7953 1 17Z" fill="#717275"/>
</svg>
