<svg width="16" height="16" viewBox="0 0 16 16" fill="none" xmlns="http://www.w3.org/2000/svg">
<path d="M12.6233 10.0167L12.05 6C12.5667 6 13.02 6.09 13.2533 5.64C13.5547 5.5788 13.8257 5.41527 14.0204 5.17714C14.215 4.939 14.3213 4.64089 14.3213 4.33333C14.3213 4.02577 14.215 3.72767 14.0204 3.48953C13.8257 3.25139 13.5547 3.08787 13.2533 3.02667C13.1975 2.91897 13.1134 2.82853 13.0101 2.7651C12.9067 2.70166 12.788 2.66763 12.6667 2.66667H11C10.8233 2.66667 11 2.89333 10.2967 1.51667C10.2801 1.48478 10.2575 1.45646 10.23 1.43333C10.3031 1.28124 10.3366 1.11311 10.3272 0.944609C10.3179 0.776106 10.2661 0.612709 10.1765 0.469636C10.087 0.326564 9.96279 0.20847 9.81535 0.126353C9.66791 0.0442372 9.50209 0.000769902 9.33333 0L8.33333 0C8.24493 0 8.16014 0.035119 8.09763 0.0976311C8.03512 0.160143 8 0.244928 8 0.333333V1.66667C8 1.75507 8.03512 1.83986 8.09763 1.90237C8.16014 1.96488 8.24493 2 8.33333 2C9.38 2 9.48 2.03 9.74667 1.90667L10.2267 2.86667C10.0086 2.98041 9.81835 3.14101 9.66966 3.33696C9.52098 3.53291 9.4175 3.75934 9.36667 4H8.33333C8.24493 4 8.16014 4.03512 8.09763 4.09763C8.03512 4.16014 8 4.24493 8 4.33333C8 4.42174 8.03512 4.50652 8.09763 4.56904C8.16014 4.63155 8.24493 4.66667 8.33333 4.66667H9.36667C9.44831 5.06626 9.67365 5.42205 10 5.66667L9.49667 11.6933C9.48995 11.777 9.45189 11.8551 9.39009 11.912C9.32829 11.9688 9.24731 12.0003 9.16333 12H7.33333C7.33333 8.73333 7.37 8.86 7.23333 8.57C7.61333 8.19667 7 6.66667 5.66667 6.66667H5.33333V4.33333C5.33333 4.24493 5.29821 4.16014 5.2357 4.09763C5.17319 4.03512 5.08841 4 5 4H0.333333C0.244928 4 0.160143 4.03512 0.0976311 4.09763C0.035119 4.16014 0 4.24493 0 4.33333L0 8.33333C0 8.42174 0.035119 8.50652 0.0976311 8.56904C0.160143 8.63155 0.244928 8.66667 0.333333 8.66667H2.03333C1.41186 9.05587 0.899313 9.59643 0.543691 10.2377C0.188068 10.879 0.000999564 11.6 0 12.3333L0 13.6667C0 13.7551 0.035119 13.8399 0.0976311 13.9024C0.160143 13.9649 0.244928 14 0.333333 14H1.36C1.43045 14.5054 1.66463 14.9737 2.02667 15.3333H0.333333C0.244928 15.3333 0.160143 15.3685 0.0976311 15.431C0.035119 15.4935 0 15.5783 0 15.6667C0 15.7551 0.035119 15.8399 0.0976311 15.9024C0.160143 15.9649 0.244928 16 0.333333 16H3.66667C4.22728 15.9993 4.76892 15.7969 5.19249 15.4296C5.61606 15.0623 5.89325 14.5549 5.97333 14H10.36C10.4305 14.5054 10.6646 14.9737 11.0267 15.3333H9.33333C9.24493 15.3333 9.16014 15.3685 9.09763 15.431C9.03512 15.4935 9 15.5783 9 15.6667C9 15.7551 9.03512 15.8399 9.09763 15.9024C9.16014 15.9649 9.24493 16 9.33333 16H12.6667C13.2273 15.9993 13.7689 15.7969 14.1925 15.4296C14.6161 15.0623 14.8932 14.5549 14.9733 14H15.6667C15.7551 14 15.8399 13.9649 15.9024 13.9024C15.9649 13.8399 16 13.7551 16 13.6667C15.9987 12.7453 15.6506 11.8582 15.0249 11.1819C14.3992 10.5055 13.5418 10.0895 12.6233 10.0167ZM9.33333 1.33333H8.66667V0.666667H9.33333C9.42174 0.666667 9.50652 0.701786 9.56904 0.764298C9.63155 0.82681 9.66667 0.911595 9.66667 1C9.66667 1.08841 9.63155 1.17319 9.56904 1.2357C9.50652 1.29821 9.42174 1.33333 9.33333 1.33333ZM13.3333 4.90667V3.76C13.4328 3.81903 13.5152 3.90293 13.5725 4.00345C13.6297 4.10397 13.6598 4.21766 13.6598 4.33333C13.6598 4.44901 13.6297 4.5627 13.5725 4.66322C13.5152 4.76374 13.4328 4.84764 13.3333 4.90667ZM10.3333 4H10.06C10.1288 3.80548 10.256 3.637 10.4243 3.51765C10.5926 3.39829 10.7937 3.33391 11 3.33333H12.6667V5.33333H11C10.7937 5.33275 10.5926 5.26837 10.4243 5.14902C10.256 5.02967 10.1288 4.86118 10.06 4.66667H10.3333C10.4217 4.66667 10.5065 4.63155 10.569 4.56904C10.6315 4.50652 10.6667 4.42174 10.6667 4.33333C10.6667 4.24493 10.6315 4.16014 10.569 4.09763C10.5065 4.03512 10.4217 4 10.3333 4ZM6.66667 13.3333H3V12.3333C3 11.9797 3.14048 11.6406 3.39052 11.3905C3.64057 11.1405 3.97971 11 4.33333 11H6.66667V13.3333ZM5.66667 7.33333C5.87355 7.33323 6.07538 7.39729 6.24433 7.51669C6.41328 7.63609 6.54104 7.80495 6.61 8H5.33333V7.33333H5.66667ZM3 4.66667V5.79333C2.62 5.60333 2.66667 5.63333 2.33333 5.79333V4.66667H3ZM0.666667 8V4.66667H1.66667C1.66667 6.40333 1.59333 6.54 1.89 6.64667C2.06667 6.71 2.16667 6.62333 2.66667 6.37333C3.22667 6.65333 3.24667 6.69 3.40333 6.65667C3.76333 6.58 3.66667 6.34333 3.66667 4.65667H4.66667V8H0.666667ZM0.666667 12.3333C0.666667 11.3609 1.05298 10.4282 1.74061 9.74061C2.42824 9.05297 3.36087 8.66667 4.33333 8.66667H6.33333C6.42174 8.66667 6.50652 8.70179 6.56904 8.7643C6.63155 8.82681 6.66667 8.91159 6.66667 9V10.3333H4.33333C3.8029 10.3333 3.29419 10.544 2.91912 10.9191C2.54405 11.2942 2.33333 11.8029 2.33333 12.3333V13.3333H0.666667V12.3333ZM2.03333 14H3.09333C3.15236 14.0995 3.23626 14.1819 3.33678 14.2391C3.4373 14.2964 3.55099 14.3265 3.66667 14.3265C3.78234 14.3265 3.89603 14.2964 3.99655 14.2391C4.09707 14.1819 4.18097 14.0995 4.24 14H5.3C5.2235 14.3768 5.01909 14.7155 4.72142 14.9588C4.42375 15.2021 4.05112 15.335 3.66667 15.335C3.28221 15.335 2.90958 15.2021 2.61191 14.9588C2.31424 14.7155 2.10984 14.3768 2.03333 14ZM7.33333 13.3333V12.6667H9.16333C9.41472 12.6675 9.65722 12.5737 9.84254 12.4038C10.0279 12.234 10.1424 12.0005 10.1633 11.75L10.64 6H11.3767L12 10.2933L10.7733 13.3333H7.33333ZM11.0333 14H12.0933C12.1524 14.0995 12.2363 14.1819 12.3368 14.2391C12.4373 14.2964 12.551 14.3265 12.6667 14.3265C12.7823 14.3265 12.896 14.2964 12.9966 14.2391C13.0971 14.1819 13.181 14.0995 13.24 14H14.3C14.2235 14.3768 14.0191 14.7155 13.7214 14.9588C13.4237 15.2021 13.0511 15.335 12.6667 15.335C12.2822 15.335 11.9096 15.2021 11.6119 14.9588C11.3142 14.7155 11.1098 14.3768 11.0333 14ZM11.4933 13.3333L12.5533 10.6667C13.256 10.7141 13.9196 11.0073 14.4279 11.4949C14.9362 11.9824 15.2567 12.6332 15.3333 13.3333H11.4933Z" fill="#717275"/>
<path d="M8 15.3335H7.33333C7.24493 15.3335 7.16014 15.3686 7.09763 15.4311C7.03512 15.4936 7 15.5784 7 15.6668C7 15.7552 7.03512 15.84 7.09763 15.9025C7.16014 15.965 7.24493 16.0002 7.33333 16.0002H8C8.08841 16.0002 8.17319 15.965 8.2357 15.9025C8.29821 15.84 8.33333 15.7552 8.33333 15.6668C8.33333 15.5784 8.29821 15.4936 8.2357 15.4311C8.17319 15.3686 8.08841 15.3335 8 15.3335Z" fill="#717275"/>
</svg>
