<svg width="14" height="14" viewBox="0 0 14 14" fill="none" xmlns="http://www.w3.org/2000/svg">
<path fill-rule="evenodd" clip-rule="evenodd" d="M6.99998 2.33317C6.03348 2.33317 5.24998 3.11667 5.24998 4.08317C5.24998 5.04967 6.03348 5.83317 6.99998 5.83317C7.96648 5.83317 8.74998 5.04967 8.74998 4.08317C8.74998 3.11667 7.96648 2.33317 6.99998 2.33317ZM4.08331 4.08317C4.08331 2.47234 5.38915 1.1665 6.99998 1.1665C8.61081 1.1665 9.91665 2.47234 9.91665 4.08317C9.91665 5.694 8.61081 6.99984 6.99998 6.99984C5.38915 6.99984 4.08331 5.694 4.08331 4.08317ZM3.54837 11.6665H10.4516C10.1739 10.0112 8.73423 8.74984 6.99998 8.74984C5.26573 8.74984 3.82608 10.0112 3.54837 11.6665ZM2.33331 12.2498C2.33331 9.67251 4.42265 7.58317 6.99998 7.58317C9.57731 7.58317 11.6666 9.67251 11.6666 12.2498C11.6666 12.572 11.4055 12.8332 11.0833 12.8332H2.91665C2.59448 12.8332 2.33331 12.572 2.33331 12.2498Z" fill="#717275"/>
</svg>
